<svg xmlns="http://www.w3.org/2000/svg" version="1.1" xmlns:xlink="http://www.w3.org/1999/xlink" xmlns:svgjs="http://svgjs.com/svgjs" width="32" height="32">
    <svg width="32" height="32" viewBox="0 0 32 32" fill="none" xmlns="http://www.w3.org/2000/svg">
        <path fill="#000" d="M7.33337 7.76325C7.33337 7.25946 7.4993 6.83961 7.83115 6.50378C8.18671 6.16796 8.60153 6 9.0756 6H10.8534C11.3274 6 11.7304 6.16796 12.0623 6.50378C12.4178 6.83961 12.5956 7.25946 12.5956 7.76325V9.5265C12.5956 10.0303 12.4178 10.4501 12.0623 10.786C11.7304 11.1218 11.3274 11.2897 10.8534 11.2897H9.0756C8.60153 11.2897 8.18671 11.1218 7.83115 10.786C7.4993 10.4501 7.33337 10.0303 7.33337 9.5265V7.76325ZM19.2445 7.76325C19.2445 7.25946 19.4104 6.83961 19.7423 6.50378C20.0978 6.16796 20.5245 6 21.0223 6H22.7645C23.2385 6 23.6416 6.16796 23.9734 6.50378C24.3289 6.83961 24.5067 7.25946 24.5067 7.76325V9.5265C24.5067 10.0303 24.3289 10.4501 23.9734 10.786C23.6416 11.1218 23.2385 11.2897 22.7645 11.2897H21.0223C20.5245 11.2897 20.0978 11.1218 19.7423 10.786C19.4104 10.4501 19.2445 10.0303 19.2445 9.5265V7.76325Z" />
        <path fill="#000" d="M5.51331 18.9541C5.51331 19.294 5.61977 19.5489 5.8327 19.7189L7.14575 21.0301C7.33502 21.2486 7.57161 21.3579 7.85551 21.3579H24.1445C24.4521 21.3579 24.6886 21.2486 24.8542 21.0301L26.1673 19.7189C26.3802 19.5489 26.4867 19.294 26.4867 18.9541V17.825C26.4867 17.3151 26.6523 16.878 26.9835 16.5138C27.3384 16.1739 27.7643 16.0039 28.2611 16.0039C28.7579 16.0039 29.172 16.1739 29.5032 16.5138C29.8344 16.878 30 17.3151 30 17.825V20.1924C30 20.4109 29.9527 20.6295 29.858 20.848C29.7634 21.0908 29.6451 21.2972 29.5032 21.4672L26.5932 24.4902C26.4039 24.6844 26.191 24.818 25.9544 24.8908C25.7414 24.9636 25.5285 25.0001 25.3156 25.0001H6.68441C6.47148 25.0001 6.24673 24.9636 6.01014 24.8908C5.79721 24.818 5.59611 24.6844 5.40684 24.4902L2.53232 21.4672C2.17744 21.1029 2 20.678 2 20.1924V17.825C2 17.3151 2.17744 16.878 2.53232 16.5138C2.86354 16.1739 3.27757 16.0039 3.7744 16.0039C4.27123 16.0039 4.68526 16.1739 5.01648 16.5138C5.3477 16.878 5.51331 17.3151 5.51331 17.825V18.9541Z" />
    </svg>

    <style>
        @media (prefers-color-scheme: dark) { :root { filter: invert(100%); } }
    </style>
</svg>